<svg width="82" height="250" viewBox="0 0 82 250" fill="none" xmlns="http://www.w3.org/2000/svg">
<path d="M8.18839 249.771L8.18838 5.59329L73.4605 5.59328L73.4605 249.771L40.8244 200.87L8.18839 249.771Z" fill="black"/>
<path d="M46.2102 54.1096C44.7869 54.1096 43.4802 53.783 42.2902 53.1296C41.1236 52.4763 40.1786 51.473 39.4552 50.1196C38.7319 48.7663 38.3702 47.0863 38.3702 45.0796V41.3696L29.5502 41.3696V35.3846L54.1202 35.3846V45.0796C54.1202 47.0396 53.7819 48.6963 53.1052 50.0496C52.4286 51.403 51.4952 52.418 50.3052 53.0946C49.1152 53.7713 47.7502 54.1096 46.2102 54.1096ZM43.1302 44.6246C43.1302 45.768 43.3986 46.6196 43.9352 47.1796C44.4719 47.7396 45.2302 48.0196 46.2102 48.0196C47.1902 48.0196 47.9486 47.7396 48.4852 47.1796C49.0219 46.6196 49.2902 45.768 49.2902 44.6246V41.3696H43.1302V44.6246ZM29.2702 67.1655C29.2702 65.2521 29.6786 63.5255 30.4952 61.9855C31.3119 60.4688 32.4786 59.2671 33.9952 58.3804C35.5119 57.5171 37.2852 57.0854 39.3152 57.0854C41.3219 57.0854 43.0836 57.5288 44.6002 58.4154C46.1402 59.3021 47.3186 60.5154 48.1352 62.0554C48.9519 63.5955 49.3602 65.3221 49.3602 67.2355C49.3602 69.1488 48.9519 70.8755 48.1352 72.4155C47.3186 73.9555 46.1402 75.1688 44.6002 76.0555C43.0836 76.9421 41.3219 77.3855 39.3152 77.3855C37.3086 77.3855 35.5352 76.9305 33.9952 76.0204C32.4786 75.1338 31.3119 73.9088 30.4952 72.3455C29.6786 70.8055 29.2702 69.0788 29.2702 67.1655ZM34.4502 67.1655C34.4502 68.3088 34.8702 69.2771 35.7102 70.0705C36.5502 70.8871 37.7519 71.2955 39.3152 71.2955C40.8786 71.2955 42.0802 70.8988 42.9202 70.1054C43.7602 69.3355 44.1802 68.3788 44.1802 67.2355C44.1802 66.0688 43.7602 65.1004 42.9202 64.3305C42.1036 63.5605 40.9019 63.1754 39.3152 63.1754C37.7519 63.1754 36.5502 63.5488 35.7102 64.2955C34.8702 65.0655 34.4502 66.0221 34.4502 67.1655ZM46.3152 87.5956C47.2252 88.1789 47.9602 88.9839 48.5202 90.0106C49.0802 91.0373 49.3602 92.2389 49.3602 93.6156C49.3602 95.2256 48.9519 96.6839 48.1352 97.9906C47.3186 99.2973 46.1519 100.324 44.6352 101.071C43.1186 101.841 41.3569 102.226 39.3502 102.226C37.3436 102.226 35.5702 101.841 34.0302 101.071C32.5136 100.324 31.3352 99.2973 30.4952 97.9906C29.6786 96.6839 29.2702 95.2256 29.2702 93.6156C29.2702 92.2623 29.5502 91.0606 30.1102 90.0106C30.6702 88.9839 31.3936 88.1789 32.2802 87.5956L20.2402 87.5956V81.6106L49.0802 81.6106V87.5956H46.3152ZM39.3502 96.1356C40.8436 96.1356 42.0102 95.7156 42.8502 94.8756C43.7136 94.0589 44.1452 93.0439 44.1452 91.8306C44.1452 90.6406 43.7136 89.6256 42.8502 88.7856C41.9869 87.9689 40.8086 87.5606 39.3152 87.5606C37.8219 87.5606 36.6436 87.9689 35.7802 88.7856C34.9169 89.6256 34.4852 90.6406 34.4852 91.8306C34.4852 93.0206 34.9169 94.0356 35.7802 94.8756C36.6669 95.7156 37.8569 96.1356 39.3502 96.1356ZM49.0802 125.7L29.5502 125.7L29.5502 119.715H32.2102C31.3469 119.109 30.6469 118.28 30.1102 117.23C29.5969 116.204 29.3402 115.06 29.3402 113.8C29.3402 112.307 29.6669 110.989 30.3202 109.845C30.9969 108.702 31.9652 107.815 33.2252 107.185C34.4852 106.555 35.9669 106.24 37.6702 106.24L49.0802 106.24L49.0802 112.19L38.4752 112.19C37.1686 112.19 36.1536 112.529 35.4302 113.205C34.7069 113.882 34.3452 114.792 34.3452 115.935C34.3452 117.102 34.7069 118.024 35.4302 118.7C36.1536 119.377 37.1686 119.715 38.4752 119.715L49.0802 119.715V125.7ZM55.4502 137.034H29.5502V131.049H55.4502V137.034ZM39.3502 141.232C41.3569 141.232 43.1186 141.605 44.6352 142.352C46.1519 143.122 47.3186 144.16 48.1352 145.467C48.9519 146.773 49.3602 148.232 49.3602 149.842C49.3602 151.218 49.0802 152.42 48.5202 153.447C47.9602 154.497 47.2252 155.302 46.3152 155.862H49.0802V161.847H29.5502V155.862H32.3152C31.4052 155.278 30.6702 154.462 30.1102 153.412C29.5502 152.385 29.2702 151.183 29.2702 149.807C29.2702 148.22 29.6786 146.773 30.4952 145.467C31.3352 144.16 32.5136 143.122 34.0302 142.352C35.5702 141.605 37.3436 141.232 39.3502 141.232ZM39.3152 155.862C40.8086 155.862 41.9869 155.442 42.8502 154.602C43.7136 153.785 44.1452 152.782 44.1452 151.592C44.1452 150.402 43.7136 149.387 42.8502 148.547C42.0102 147.73 40.8436 147.322 39.3502 147.322C37.8569 147.322 36.6669 147.73 35.7802 148.547C34.9169 149.387 34.4852 150.402 34.4852 151.592C34.4852 152.782 34.9169 153.785 35.7802 154.602C36.6436 155.442 37.8219 155.862 39.3152 155.862ZM45.8252 173.212C46.8986 173.912 47.7386 174.787 48.3452 175.837C48.9752 176.887 49.2902 178.053 49.2902 179.337H42.9552V177.692C42.9552 176.198 42.6286 175.078 41.9752 174.332C41.3452 173.585 40.2252 173.212 38.6152 173.212H29.5502V167.227H49.0802V173.212H45.8252Z" fill="white"/>
<path d="M8.50738 0.578552H71.7537L81.704 14.8159H0.28833L8.50738 0.578552Z" fill="black"/>
</svg>
