<svg width="0" height="0" class="hidden">
  <symbol fill="#000000" version="1.1" id="clock" xmlns="http://www.w3.org/2000/svg" xmlns:xlink="http://www.w3.org/1999/xlink" xml:space="preserve" viewBox="0 0 512 512">
    <g>
      <g>
        <g>
          <path d="M437.019,74.981C388.668,26.629,324.38,0,256,0S123.332,26.629,74.981,74.981C26.629,123.332,0,187.62,0,256
				s26.629,132.668,74.981,181.019C123.332,485.371,187.62,512,256,512c64.518,0,126.15-24.077,173.541-67.796l-10.312-11.178
				c-44.574,41.12-102.544,63.766-163.229,63.766c-64.317,0-124.786-25.046-170.266-70.527
				C40.254,380.786,15.208,320.317,15.208,256S40.254,131.214,85.734,85.735C131.214,40.254,191.683,15.208,256,15.208
				s124.786,25.046,170.266,70.527c45.48,45.479,70.526,105.948,70.526,170.265c0,60.594-22.587,118.498-63.599,163.045
				l11.188,10.301C487.986,381.983,512,320.421,512,256C512,187.62,485.371,123.332,437.019,74.981z"></path>
          <path d="M282.819,263.604h63.415v-15.208h-63.415c-1.619-5.701-5.007-10.662-9.536-14.25l35.913-86.701l-14.049-5.82
				l-35.908,86.688c-1.064-0.124-2.142-0.194-3.238-0.194c-15.374,0-27.881,12.508-27.881,27.881s12.507,27.881,27.881,27.881
				C268.737,283.881,279.499,275.292,282.819,263.604z M243.327,256c0-6.989,5.685-12.673,12.673-12.673
				c6.989,0,12.673,5.685,12.673,12.673c0,6.989-5.685,12.673-12.673,12.673C249.011,268.673,243.327,262.989,243.327,256z"></path>
          <path d="M451.168,256c0-107.616-87.552-195.168-195.168-195.168S60.832,148.384,60.832,256S148.384,451.168,256,451.168
				S451.168,363.616,451.168,256z M76.04,256c0-99.231,80.73-179.96,179.96-179.96S435.96,156.769,435.96,256
				S355.231,435.96,256,435.96S76.04,355.231,76.04,256z"></path>
          <rect x="248.396" y="366.511" width="15.208" height="56.776"></rect>
          <path d="M61.672,336.501l-14.05,5.82c23.059,55.668,66.416,99.026,122.085,122.085l5.82-14.049
				C123.61,428.851,83.176,388.416,61.672,336.501z"></path>
          <path d="M450.397,175.485l14.049-5.82c-23.059-55.669-66.417-99.027-122.085-122.084l-5.82,14.049
				C388.457,83.135,428.891,123.569,450.397,175.485z"></path>
          <path d="M256,45.624V30.416c-60.256,0-116.904,23.465-159.512,66.071C53.881,139.095,30.416,195.744,30.416,256h15.208
				c0-56.194,21.883-109.024,61.617-148.759C146.976,67.507,199.807,45.624,256,45.624z"></path>
          <path d="M481.584,256h-15.208c0,56.193-21.883,109.024-61.617,148.759c-39.734,39.735-92.566,61.617-148.759,61.617v15.208
				c60.256,0,116.904-23.465,159.513-66.071C458.119,372.904,481.584,316.256,481.584,256z"></path>
          <rect x="248.396" y="88.713" width="15.208" height="56.776"></rect>
          <rect x="183.845" y="106.019" transform="matrix(0.3827 0.9239 -0.9239 0.3827 226.5988 -111.8865)" width="26.361" height="15.208"></rect>
          <rect x="301.78" y="390.75" transform="matrix(-0.3827 -0.9239 0.9239 -0.3827 67.4626 841.7849)" width="26.361" height="15.207"></rect>
          <rect x="100.445" y="189.43" transform="matrix(0.9239 0.3827 -0.3827 0.9239 84.0528 -28.4842)" width="26.36" height="15.207"></rect>
          <rect x="385.201" y="307.351" transform="matrix(-0.9239 -0.3827 0.3827 -0.9239 645.9084 758.3894)" width="26.361" height="15.207"></rect>
          <rect x="106.028" y="301.792" transform="matrix(-0.3827 -0.9239 0.9239 -0.3827 -133.8779 540.4901)" width="15.207" height="26.36"></rect>
          <rect x="390.765" y="183.851" transform="matrix(0.3827 0.9239 -0.9239 0.3827 427.9489 -246.4146)" width="15.207" height="26.361"></rect>
          <rect x="189.433" y="385.188" transform="matrix(-0.9239 -0.3827 0.3827 -0.9239 226.6226 841.8156)" width="15.208" height="26.361"></rect>
          <rect x="307.381" y="100.448" transform="matrix(0.9239 0.3827 -0.3827 0.9239 67.4614 -111.8911)" width="15.207" height="26.361"></rect>
          <rect x="129.389" y="150.181" transform="matrix(-0.7071 -0.7071 0.7071 -0.7071 157.7713 380.9216)" width="56.776" height="15.208"></rect>
          <rect x="325.825" y="346.62" transform="matrix(-0.7071 -0.7071 0.7071 -0.7071 354.2049 855.1643)" width="56.776" height="15.208"></rect>
          <rect x="88.713" y="248.396" width="56.776" height="15.208"></rect>
          <rect x="366.511" y="248.396" width="56.776" height="15.208"></rect>
          <rect x="150.157" y="325.829" transform="matrix(-0.7071 -0.7071 0.7071 -0.7071 18.8444 716.2403)" width="15.208" height="56.776"></rect>
          <rect x="346.602" y="129.395" transform="matrix(0.7071 0.7071 -0.7071 0.7071 215.3148 -204.2485)" width="15.208" height="56.776"></rect>
        </g>
      </g>
    </g>
  </symbol>
  <symbol xmlns="http://www.w3.org/2000/svg" xmlns:xlink="http://www.w3.org/1999/xlink" version="1.1" xml:space="preserve" viewBox="0 0 256 256" id="growth">
    <defs></defs>
    <g transform="translate(1.4065934065934016 1.4065934065934016) scale(2.81 2.81)">
      <path d="M 87.333 6.429 H 2.667 C 1.194 6.429 0 7.623 0 9.096 V 62.95 c 0 1.473 1.194 2.667 2.667 2.667 h 24.672 l -7.096 17.191 l 1.849 0.764 l 4.436 -10.745 h 36.947 l 4.435 10.745 l 1.85 -0.764 l -7.096 -17.191 h 24.671 c 1.473 0 2.667 -1.194 2.667 -2.667 V 9.096 C 90 7.623 88.806 6.429 87.333 6.429 z M 62.648 70.826 H 27.352 l 2.151 -5.21 h 30.995 L 62.648 70.826 z M 88 62.95 c 0 0.368 -0.299 0.667 -0.667 0.667 H 2.667 C 2.299 63.616 2 63.317 2 62.95 V 9.096 c 0 -0.368 0.299 -0.667 0.667 -0.667 h 84.667 C 87.701 8.429 88 8.728 88 9.096 V 62.95 z" transform=" matrix(1 0 0 1 0 0) " stroke-linecap="round"></path>
      <path d="M 64.781 14.982 h -8.581 c -0.822 0 -1.234 0.994 -0.652 1.575 l 2.666 2.666 l -15.56 15.56 l -5.449 -5.449 l -1.46 -1.46 c -0.494 -0.494 -1.295 -0.494 -1.789 0 l -9.288 9.288 c -0.494 0.494 -0.494 1.295 0 1.789 l 1.46 1.46 c 0.494 0.494 1.295 0.494 1.789 0 l 6.933 -6.933 l 6.898 6.898 c 0.494 0.494 1.295 0.494 1.789 0 l 0.743 -0.743 c 0.038 -0.03 0.078 -0.057 0.114 -0.093 l 17.069 -17.069 l 2.666 2.666 c 0.581 0.581 1.575 0.17 1.575 -0.652 v -8.581 C 65.703 15.395 65.29 14.982 64.781 14.982 z" transform=" matrix(1 0 0 1 0 0) " stroke-linecap="round"></path>
      <path d="M 54.49 32.373 v 22.751 c 0 0.699 0.566 1.265 1.265 1.265 h 4.04 c 0.699 0 1.265 -0.566 1.265 -1.265 V 25.802 L 54.49 32.373 z" transform=" matrix(1 0 0 1 0 0) " stroke-linecap="round"></path>
      <path d="M 45.973 40.89 v 14.234 c 0 0.699 0.566 1.265 1.265 1.265 h 4.04 c 0.699 0 1.265 -0.566 1.265 -1.265 V 34.319 L 45.973 40.89 z" transform=" matrix(1 0 0 1 0 0) " stroke-linecap="round"></path>
      <path d="M 42.643 42.818 c -0.891 0 -1.729 -0.347 -2.359 -0.977 l -2.827 -2.827 v 16.11 c 0 0.699 0.566 1.265 1.265 1.265 h 4.04 c 0.699 0 1.265 -0.566 1.265 -1.265 V 42.515 C 43.598 42.711 43.129 42.818 42.643 42.818 z" transform=" matrix(1 0 0 1 0 0) " stroke-linecap="round"></path>
      <path d="M 34.849 36.407 l -5.469 5.468 c -0.137 0.137 -0.286 0.258 -0.441 0.368 v 12.881 c 0 0.699 0.566 1.265 1.265 1.265 h 4.04 c 0.699 0 1.265 -0.566 1.265 -1.265 V 37.068 L 34.849 36.407 z" transform=" matrix(1 0 0 1 0 0) " stroke-linecap="round"></path>
    </g>
  </symbol>
  <symbol xmlns="http://www.w3.org/2000/svg" enable-background="new 0 0 24 24" viewBox="0 0 24 24" id="wordpress">
    <path d="M3.66675,11.99976c-0.00055,3.1933,1.82367,6.10608,4.69678,7.49969L4.38818,8.60846
	C3.91162,9.67548,3.66583,10.83112,3.66675,11.99976z M12.14648,12.7287l-2.50073,7.2652
	c1.67889,0.49438,3.47076,0.44788,5.1217-0.13293c-0.02319-0.0365-0.04315-0.07489-0.05969-0.11487L12.14648,12.7287z
	 M17.62573,11.57953c-0.01117-0.815-0.24902-1.61078-0.68701-2.29816c-0.44788-0.56354-0.7312-1.23999-0.8186-1.95453
	c-0.0202-0.79413,0.60535-1.45526,1.39941-1.47894c0.03699,0,0.07202,0.00446,0.10791,0.00671
	C14.23444,2.74658,8.96436,2.97766,5.85638,6.37061C5.55566,6.69885,5.2818,7.05066,5.03735,7.42267
	C5.23291,7.42889,5.41724,7.4328,5.57361,7.4328c0.87146,0,2.22107-0.10602,2.22107-0.10602
	C7.98462,7.3158,8.14752,7.46088,8.15851,7.65082C8.16919,7.83551,8.03204,7.99567,7.8479,8.01355
	c0,0-0.45166,0.05286-0.95361,0.07916l3.03442,9.02649l1.82397-5.4693l-1.29834-3.55713
	c-0.44897-0.02631-0.87402-0.07916-0.87402-0.07916c-0.18933-0.01831-0.328-0.18665-0.30975-0.37598
	c0.01782-0.18427,0.17804-0.32147,0.36279-0.31079c0,0,1.37585,0.10602,2.19458,0.10602c0.87146,0,2.22131-0.10602,2.22131-0.10602
	c0.18988-0.01111,0.35291,0.13385,0.36401,0.32373c0.0108,0.18494-0.12653,0.34534-0.31091,0.36304
	c0,0-0.45203,0.05286-0.95361,0.07916l3.01147,8.95776l0.85962-2.72406C17.35553,13.44556,17.55969,12.51996,17.62573,11.57953z
	 M19.36877,8.85889c-0.01447,1.02673-0.2298,2.04077-0.63391,2.98474l-2.54517,7.35889
	c3.90363-2.27075,5.28845-7.23743,3.12299-11.20044C19.35059,8.28607,19.36932,8.57233,19.36877,8.85889z M12,2.00012
	c-5.52283,0-10,4.47717-10,10s4.47717,10,10,10s10-4.47717,10-10S17.52283,2.00012,12,2.00012z M15.65869,20.66162
	c-2.92645,1.23846-6.28082,0.91241-8.91394-0.86652c-1.51147-1.02045-2.69464-2.45721-3.40637-4.13629
	c-1.23877-2.92645-0.9126-6.28094,0.8667-8.91394c1.02026-1.5116,2.45703-2.69489,4.13623-3.40631
	c2.92645-1.23846,6.28082-0.91241,8.91394,0.86652c1.51147,1.02045,2.69464,2.45721,3.40637,4.13629
	c1.23877,2.92645,0.9126,6.28094-0.8667,8.91394C18.77466,18.76691,17.33789,19.9502,15.65869,20.66162z"></path>
  </symbol>
  <symbol fill="#000000" version="1.1" xmlns="http://www.w3.org/2000/svg" viewBox="-5.5 0 32 32" id="menu">
    <title>menu</title>
    <path d="M1.375 9.156h18.063c0.781 0 1.375-0.594 1.375-1.375 0-0.75-0.594-1.344-1.375-1.344h-18.063c-0.781 0-1.375 0.594-1.375 1.344 0 0.781 0.594 1.375 1.375 1.375zM1.375 14.625h18.063c0.781 0 1.375-0.594 1.375-1.375 0-0.75-0.594-1.344-1.375-1.344h-18.063c-0.781 0-1.375 0.594-1.375 1.344 0 0.781 0.594 1.375 1.375 1.375zM1.375 20.094h18.063c0.781 0 1.375-0.594 1.375-1.344 0-0.781-0.594-1.375-1.375-1.375h-18.063c-0.781 0-1.375 0.594-1.375 1.375 0 0.75 0.594 1.344 1.375 1.344zM1.375 25.563h18.063c0.781 0 1.375-0.594 1.375-1.344 0-0.781-0.594-1.375-1.375-1.375h-18.063c-0.781 0-1.375 0.594-1.375 1.375 0 0.75 0.594 1.344 1.375 1.344z"></path>
  </symbol>
  <symbol xmlns="http://www.w3.org/2000/svg" viewBox="0 0 40 40" id="tick">
    <path d="M15.48 28.62a1 1 0 0 1-.71-.29l-7.54-7.54a1 1 0 0 1 0-1.41 1 1 0 0 1 1.42 0l6.83 6.83L32.12 9.57a1 1 0 0 1 1.41 0 1 1 0 0 1 0 1.42L16.18 28.33a1 1 0 0 1-.7.29Z"></path>
  </symbol>
  <symbol version="1.0" xmlns="http://www.w3.org/2000/svg" preserveAspectRatio="xMidYMid meet" viewBox="0 0 40.000000 40.000000" id="easy">
    <g transform="translate(0.000000,40.000000) scale(0.100000,-0.100000)" fill="#000000" stroke="none">
      <path d="M150 360 c0 -16 5 -30 10 -30 6 0 10 14 10 30 0 17 -4 30 -10 30 -5
0 -10 -13 -10 -30z"></path>
      <path d="M80 363 c0 -12 38 -48 45 -41 3 2 -6 15 -20 28 -14 13 -25 19 -25 13z"></path>
      <path d="M210 345 c-13 -14 -19 -25 -13 -25 12 0 48 38 41 45 -2 3 -15 -6 -28
-20z"></path>
      <path d="M228 284 l-76 -77 -35 36 c-34 37 -50 43 -81 31 -22 -9 -20 -24 8
-53 13 -15 31 -49 40 -78 12 -35 30 -63 57 -87 57 -53 82 -49 153 23 l59 60
-17 33 c-10 18 -24 46 -33 61 -14 27 -14 30 12 57 28 29 30 63 5 68 -8 1 -50
-32 -92 -74z m102 48 c0 -4 -18 -26 -40 -47 -37 -36 -39 -40 -20 -47 12 -5 18
-13 14 -23 -4 -10 0 -15 11 -15 13 0 16 -6 11 -25 -5 -18 -3 -23 8 -19 8 3 17
1 20 -4 7 -12 -108 -122 -128 -122 -31 0 -93 68 -106 116 -7 26 -24 59 -38 76
-13 16 -22 31 -19 35 15 14 60 -10 79 -43 l21 -36 81 81 c73 73 106 96 106 73z"></path>
    </g>
  </symbol>
  <symbol xmlns="http://www.w3.org/2000/svg" viewBox="0 0 50 50" id="snap">
    <path d="M 0 4 L 0 46 L 50 46 L 50 4 Z M 2 6 L 48 6 L 48 44 L 2 44 Z M 4 8 L 4 30.78125 C 3.972656 30.914063 3.972656 31.054688 4 31.1875 L 4 42 L 46 42 L 46 37.15625 C 46.027344 37.023438 46.027344 36.882813 46 36.75 L 46 8 Z M 6 10 L 44 10 L 44 34.5625 L 34.71875 25.28125 C 34.496094 25.0625 34.183594 24.957031 33.875 25 C 33.652344 25.023438 33.441406 25.125 33.28125 25.28125 L 29.03125 29.53125 L 18.75 18.3125 C 18.519531 18.0625 18.179688 17.941406 17.84375 18 C 17.644531 18.027344 17.460938 18.117188 17.3125 18.25 L 6 28.6875 Z M 35 15 C 33.34375 15 32 16.34375 32 18 C 32 19.65625 33.34375 21 35 21 C 36.65625 21 38 19.65625 38 18 C 38 16.34375 36.65625 15 35 15 Z M 17.9375 20.4375 L 27.59375 30.96875 L 25.28125 33.28125 C 24.882813 33.679688 24.882813 34.320313 25.28125 34.71875 C 25.679688 35.117188 26.320313 35.117188 26.71875 34.71875 L 29.5625 31.84375 C 29.703125 31.757813 29.820313 31.640625 29.90625 31.5 L 34 27.4375 L 44 37.4375 L 44 40 L 6 40 L 6 31.46875 Z"></path>
  </symbol>
  <symbol xmlns="http://www.w3.org/2000/svg" viewBox="0 0 24 24" id="double qotes">
    <g>
      <path fill="none" d="M0 0h24v24H0z"></path>
      <path d="M4.583 17.321C3.553 16.227 3 15 3 13.011c0-3.5 2.457-6.637 6.03-8.188l.893 1.378c-3.335 1.804-3.987 4.145-4.247 5.621.537-.278 1.24-.375 1.929-.311 1.804.167 3.226 1.648 3.226 3.489a3.5 3.5 0 0 1-3.5 3.5c-1.073 0-2.099-.49-2.748-1.179zm10 0C13.553 16.227 13 15 13 13.011c0-3.5 2.457-6.637 6.03-8.188l.893 1.378c-3.335 1.804-3.987 4.145-4.247 5.621.537-.278 1.24-.375 1.929-.311 1.804.167 3.226 1.648 3.226 3.489a3.5 3.5 0 0 1-3.5 3.5c-1.073 0-2.099-.49-2.748-1.179z"></path>
    </g>
  </symbol>
  <symbol xmlns="http://www.w3.org/2000/svg" viewBox="0 0 24 24" id="line">
    <path d="M21.71,3.29a1,1,0,0,0-1.42,0l-18,18a1,1,0,0,0,0,1.42,1,1,0,0,0,1.42,0l18-18A1,1,0,0,0,21.71,3.29Z"></path>
  </symbol>
  <symbol xmlns="http://www.w3.org/2000/svg" viewBox="0 0 48 48" id="computer">
    <path fill-rule="evenodd" d="M43 35H29.195c.595 3.301 2.573 5.572 4.401 7H36a1 1 0 1 1 0 2H12a1 1 0 1 1 0-2h2.403c1.827-1.428 3.807-3.699 4.401-7H5a4 4 0 0 1-4-4V8a4 4 0 0 1 4-4h38a4 4 0 0 1 4 4v23a4 4 0 0 1-4 4zm-25.603 7h13.205c-1.595-1.682-3.015-3.976-3.459-7h-6.287c-.444 3.024-1.864 5.318-3.459 7zM45 8a2 2 0 0 0-2-2H5a2 2 0 0 0-2 2v19h42V8zm0 21H3v2a2 2 0 0 0 2 2h38a2 2 0 0 0 2-2v-2zm-21 3a1 1 0 1 1 0-2 1 1 0 1 1 0 2z" clip-rule="evenodd"></path>
  </symbol>
</svg>