<svg width="147" height="280" viewBox="0 0 147 280" fill="none" xmlns="http://www.w3.org/2000/svg">
<rect width="147" height="280" fill="#F5F5F5"/>
<path d="M28 24H118V256L73 206.286L28 256V24Z" fill="black"/>
<path d="M80.748 70.548C78.66 70.548 76.92 69.828 75.528 68.388C74.16 66.972 73.476 64.8 73.476 61.872V57.048H63V53.772H88.092V61.872C88.092 64.704 87.408 66.852 86.04 68.316C84.672 69.804 82.908 70.548 80.748 70.548ZM76.176 61.872C76.176 63.696 76.572 65.04 77.364 65.904C78.156 66.768 79.284 67.2 80.748 67.2C83.844 67.2 85.392 65.424 85.392 61.872V57.048H76.176V61.872ZM62.676 83.2237C62.676 81.3757 63.096 79.6957 63.936 78.1837C64.776 76.6957 65.964 75.5197 67.5 74.6557C69.06 73.8157 70.86 73.3957 72.9 73.3957C74.916 73.3957 76.692 73.8277 78.228 74.6917C79.788 75.5797 80.976 76.7797 81.792 78.2917C82.632 79.8037 83.052 81.4957 83.052 83.3677C83.052 85.2397 82.632 86.9317 81.792 88.4437C80.976 89.9557 79.8 91.1437 78.264 92.0077C76.728 92.8957 74.94 93.3397 72.9 93.3397C70.86 93.3397 69.06 92.8837 67.5 91.9717C65.964 91.0837 64.776 89.8717 63.936 88.3357C63.096 86.7997 62.676 85.0957 62.676 83.2237ZM65.556 83.2237C65.556 84.3997 65.832 85.5037 66.384 86.5357C66.936 87.5677 67.764 88.3957 68.868 89.0197C69.972 89.6677 71.316 89.9917 72.9 89.9917C74.484 89.9917 75.828 89.6797 76.932 89.0557C78.036 88.4317 78.852 87.6157 79.38 86.6077C79.932 85.5997 80.208 84.5077 80.208 83.3317C80.208 82.1317 79.932 81.0277 79.38 80.0197C78.852 79.0357 78.036 78.2437 76.932 77.6437C75.828 77.0437 74.484 76.7437 72.9 76.7437C71.292 76.7437 69.936 77.0317 68.832 77.6077C67.728 78.2077 66.9 78.9997 66.348 79.9837C65.82 80.9677 65.556 82.0477 65.556 83.2237ZM79.092 100.923C80.22 101.571 81.156 102.531 81.9 103.803C82.668 105.099 83.052 106.599 83.052 108.303C83.052 110.055 82.632 111.639 81.792 113.055C80.952 114.495 79.764 115.623 78.228 116.439C76.716 117.255 74.952 117.663 72.936 117.663C70.944 117.663 69.168 117.255 67.608 116.439C66.048 115.623 64.836 114.495 63.972 113.055C63.108 111.639 62.676 110.055 62.676 108.303C62.676 106.623 63.048 105.135 63.792 103.839C64.56 102.567 65.508 101.595 66.636 100.923H53.64V97.647H82.728V100.923H79.092ZM72.936 114.315C74.424 114.315 75.72 114.015 76.824 113.415C77.928 112.815 78.768 111.999 79.344 110.967C79.92 109.959 80.208 108.843 80.208 107.619C80.208 106.419 79.908 105.303 79.308 104.271C78.732 103.263 77.88 102.447 76.752 101.823C75.648 101.223 74.364 100.923 72.9 100.923C71.412 100.923 70.104 101.223 68.976 101.823C67.872 102.447 67.02 103.263 66.42 104.271C65.844 105.303 65.556 106.419 65.556 107.619C65.556 108.843 65.844 109.959 66.42 110.967C67.02 111.999 67.872 112.815 68.976 113.415C70.104 114.015 71.424 114.315 72.936 114.315ZM82.728 139.471H63V136.195H65.916C64.908 135.571 64.116 134.695 63.54 133.567C62.988 132.463 62.712 131.239 62.712 129.895C62.712 128.359 63.024 126.979 63.648 125.755C64.296 124.531 65.256 123.559 66.528 122.839C67.8 122.143 69.348 121.795 71.172 121.795H82.728V125.035H71.604C69.66 125.035 68.16 125.527 67.104 126.511C66.072 127.495 65.556 128.839 65.556 130.543C65.556 132.295 66.096 133.675 67.176 134.683C68.256 135.691 69.828 136.195 71.892 136.195H82.728V139.471ZM89.64 148.278H63V145.002H89.64V148.278ZM72.936 152.638C74.952 152.638 76.716 153.046 78.228 153.862C79.764 154.678 80.952 155.794 81.792 157.21C82.632 158.65 83.052 160.246 83.052 161.998C83.052 163.726 82.68 165.226 81.936 166.498C81.192 167.77 80.256 168.718 79.128 169.342H82.728V172.654H63V169.342H66.672C65.52 168.694 64.56 167.722 63.792 166.426C63.048 165.154 62.676 163.666 62.676 161.962C62.676 160.21 63.108 158.626 63.972 157.21C64.836 155.794 66.048 154.678 67.608 153.862C69.168 153.046 70.944 152.638 72.936 152.638ZM72.9 169.342C74.388 169.342 75.684 169.042 76.788 168.442C77.892 167.842 78.732 167.026 79.308 165.994C79.908 164.986 80.208 163.87 80.208 162.646C80.208 161.422 79.92 160.306 79.344 159.298C78.768 158.29 77.928 157.486 76.824 156.886C75.72 156.286 74.424 155.986 72.936 155.986C71.424 155.986 70.104 156.286 68.976 156.886C67.872 157.486 67.02 158.29 66.42 159.298C65.844 160.306 65.556 161.422 65.556 162.646C65.556 163.87 65.844 164.986 66.42 165.994C67.02 167.026 67.872 167.842 68.976 168.442C70.104 169.042 71.412 169.342 72.9 169.342ZM79.524 181.466C80.652 182.042 81.528 182.858 82.152 183.914C82.776 184.994 83.088 186.302 83.088 187.838H79.704V186.974C79.704 183.302 77.712 181.466 73.728 181.466H63V178.19H82.728V181.466H79.524Z" fill="white"/>
</svg>
